<svg xmlns="http://www.w3.org/2000/svg" viewBox="0 0 512 512" width="512" height="512">
  <rect width="512" height="512" rx="110" fill="#0a0804"/>
  <rect width="512" height="512" rx="110" fill="url(#bg)"/>
  <defs>
    <radialGradient id="bg" cx="50%" cy="40%" r="60%">
      <stop offset="0%" stop-color="#2d1a00"/>
      <stop offset="100%" stop-color="#0a0804"/>
    </radialGradient>
    <linearGradient id="gold" x1="0%" y1="0%" x2="100%" y2="100%">
      <stop offset="0%" stop-color="#e8b84b"/>
      <stop offset="100%" stop-color="#c8793a"/>
    </linearGradient>
  </defs>
  <ellipse cx="256" cy="300" rx="112" ry="102" fill="url(#gold)" opacity="0.92"/>
  <path d="M256 198 Q214 240 210 300 Q234 290 256 300 Q278 290 302 300 Q298 240 256 198Z" fill="#1a0a00" opacity="0.25"/>
  <path d="M210 300 Q230 332 256 338 Q282 332 302 300" fill="none" stroke="#1a0a00" stroke-width="3" opacity="0.3"/>
  <line x1="256" y1="198" x2="256" y2="338" stroke="#1a0a00" stroke-width="3" opacity="0.2"/>
  <path d="M256 198 Q252 156 244 128 Q256 118 268 132 Q276 154 256 198" fill="#4a7a20" opacity="0.85"/>
  <path d="M256 182 Q234 148 218 124" fill="none" stroke="#5a9a28" stroke-width="6" stroke-linecap="round" opacity="0.7"/>
  <path d="M256 160 Q278 134 298 118" fill="none" stroke="#5a9a28" stroke-width="5" stroke-linecap="round" opacity="0.6"/>
  <path d="M224 396 Q214 418 204 428 M234 402 Q230 422 226 436 M256 404 Q256 428 256 444 M278 402 Q282 422 286 436 M288 396 Q298 418 308 428" fill="none" stroke="#c8793a" stroke-width="4" stroke-linecap="round" opacity="0.6"/>
  <ellipse cx="218" cy="256" rx="32" ry="22" fill="white" opacity="0.06" transform="rotate(-20 218 256)"/>
</svg>
